<svg xmlns="http://www.w3.org/2000/svg" viewBox="0 0 311.65 67"><defs><style>.cls-1{fill:#15314b;}.cls-2{fill:#ff4239;}</style></defs><g id="Layer_2" data-name="Layer 2"><g id="Layer_1-2" data-name="Layer 1"><path class="cls-1" d="M115.72,21.54h1.17l4.25,3.59A10.57,10.57,0,0,1,130,20.74c4.16,0,6.72,2.06,7.92,4.62a11.33,11.33,0,0,1,9.41-4.62c5.18,0,9.17,3.08,9.17,10.26V49.76H151v-17c0-5.19-2.23-6.78-5.53-6.78-3.48,0-6.5,2.62-6.5,7.81v16h-5.59v-17c0-5.19-2.39-6.78-5.47-6.78-3.48,0-6.55,2.62-6.55,7.81v16h-5.59Z"/><path class="cls-1" d="M179.28,39.73V36L173,37c-3.81.57-6,1.77-6,4.67,0,2.57,2.17,4.28,5.7,4.28S179.28,43.94,179.28,39.73ZM161.5,42c0-4.5,2.62-8,11-9.24l6.78-1v-.63c0-3.71-1.88-5.76-6-5.76s-5.81,2.05-6.33,5.13l-5-1.2c1.31-5.47,5-8.49,11.4-8.49,6.61,0,11.52,3.31,11.52,10.26v18.7h-2.13L179.57,47c-1.37,1.88-3.82,3.54-8.33,3.54C165.32,50.56,161.5,46.85,161.5,42Z"/><path class="cls-1" d="M190.57,21.54h1.17l4.3,3.59a10.61,10.61,0,0,1,9-4.39c6,0,9.92,3.48,9.92,11.29V49.76h-5.59V33c0-5.53-2.62-7-6-7-3.82,0-7.12,2.85-7.12,8V49.76h-5.59Z"/><path class="cls-1" d="M242.73,35.62c0-5.76-3.48-9.86-8.61-9.86s-8.66,4.1-8.66,9.86,3.59,9.86,8.66,9.86S242.73,41.32,242.73,35.62Zm-.08,10.71a11.41,11.41,0,0,1-9.21,4.17c-8.15,0-13.57-7.13-13.57-14.88s5-14.88,13.51-14.88a11.32,11.32,0,0,1,9.35,4.45V9.86h5.58v39.9H246.7"/><path class="cls-1" d="M276.76,35.68c0-5.64-3.76-9.81-8.95-9.81s-8.95,4.17-8.95,9.81,3.71,9.75,8.95,9.75S276.76,41.26,276.76,35.68Zm-23.48,0c0-7.92,5.81-14.94,14.53-14.94s14.54,7,14.54,14.94-5.76,14.88-14.54,14.88S253.28,43.49,253.28,35.68Z"/><path class="cls-1" d="M287.31,21.54h1.17l4.3,3.59a10.6,10.6,0,0,1,9-4.39c6,0,9.92,3.48,9.92,11.29V49.76h-5.59V33c0-5.53-2.62-7-6-7-3.82,0-7.13,2.85-7.13,8V49.76h-5.58Z"/><polygon class="cls-2" points="67.73 16.15 86.53 32.05 86.53 0.08 67.73 16.15"/><polygon class="cls-2" points="43.29 1.42 26.47 16.12 86.53 67 86.53 38.01 59.88 15.46 43.29 1.42"/><polygon class="cls-2" points="59.43 50.3 43.23 64.66 0 27.96 0 0 59.43 50.3"/><polygon class="cls-2" points="0 65.89 18.74 49.84 0 33.94 0 65.89"/></g></g></svg>